<svg width="84.6" height="74.502" viewBox="0 0 84.6 74.502" xmlns="http://www.w3.org/2000/svg"><g id="svgGroup" stroke-linecap="round" fill-rule="evenodd" font-size="9pt" stroke="#1071ff" stroke-width="0.25mm" fill="#1071ff" style="stroke:#1071ff;stroke-width:0.25mm;fill:#1071ff"><path d="M 84.6 48.1 L 84.6 0 L 66.6 0 L 66.6 24.3 C 63.5 22.6 59.8 21.5 56.1 21.5 C 42.25 21.5 32.421 29.543 30.117 42.193 A 32.954 32.954 0 0 0 29.6 48.1 A 26.568 26.568 0 0 0 53.515 74.287 A 29.979 29.979 0 0 0 57.1 74.5 C 72.611 74.5 83.892 64.068 84.568 49.492 A 30.062 30.062 0 0 0 84.6 48.1 Z M 10.8 74.2 C 16.7 74.2 21.6 69.3 21.6 63.4 C 21.6 57.5 16.7 52.6 10.8 52.6 C 4.9 52.6 0 57.5 0 63.4 C 0 69.3 4.9 74.2 10.8 74.2 Z M 47.6 48 A 11.034 11.034 0 0 0 47.603 48.247 C 47.719 53.433 51.489 57.6 57.1 57.6 C 59.794 57.6 62.064 56.639 63.708 55.067 A 9.675 9.675 0 0 0 66.6 48 A 9.52 9.52 0 0 0 62.178 39.783 A 9.601 9.601 0 0 0 57.1 38.4 C 51.4 38.4 47.6 42.8 47.6 48 Z" vector-effect="non-scaling-stroke"/></g></svg>